<svg width="315" height="130" viewBox="0 0 315 130" fill="none" xmlns="http://www.w3.org/2000/svg">
<mask id="mask0_387_2820" style="mask-type:luminance" maskUnits="userSpaceOnUse" x="0" y="0" width="315" height="130">
<path d="M314.147 0H0.0450439V130H314.147V0Z" fill="white"/>
</mask>
<g mask="url(#mask0_387_2820)">
<path d="M0.0450439 0V130H20.0331V125.911H4.67385V4.08871H20.0331V0H0.0450439Z" fill="white"/>
<path d="M235.825 86.3609H230.539L242.847 115.558H246.766C245.714 120.512 243.715 122.976 240.796 122.976C240.48 122.976 240.086 122.923 239.612 122.819C239.139 122.714 238.665 122.609 238.166 122.478C237.666 122.347 237.219 122.163 236.824 121.98C236.404 121.796 236.088 121.587 235.851 121.403L234.221 125.597C234.457 125.833 234.799 126.069 235.273 126.304C235.746 126.54 236.246 126.75 236.798 126.907C237.35 127.091 237.903 127.222 238.481 127.353C239.06 127.458 239.586 127.536 240.086 127.536C242.347 127.536 244.188 127.012 245.609 125.964C247.003 124.915 248.133 123.631 248.949 122.111C249.764 120.591 250.395 118.966 250.842 117.236C251.289 115.506 251.737 113.96 252.157 112.597L260.31 86.3609H255.55L248.291 111.077H246.056L235.825 86.3609ZM221.097 115.558V111.653H209.841V94.4596C210.077 94.1189 210.445 93.6734 210.945 93.1754C211.445 92.6774 212.076 92.1532 212.786 91.6552C213.496 91.1572 214.364 90.7117 215.337 90.3709C216.31 90.0302 217.415 89.8467 218.625 89.8467C219.914 89.8467 220.808 90.4234 221.281 91.5766C221.781 92.7298 222.018 94.5383 222.018 97.0282L226.12 96.9758C226.12 95.2197 226.041 93.6472 225.884 92.2842C225.726 90.8951 225.437 89.7157 224.963 88.7459C224.516 87.7762 223.885 87.0423 223.096 86.5181C222.307 86.0201 221.229 85.758 219.914 85.758C217.652 85.758 215.706 86.1774 214.049 87.0423C212.418 87.9072 210.919 88.9294 209.604 90.1351H209.315L208.368 86.3346H197.401V90.2399H205.317V111.653H197.401V115.558H221.097ZM169.943 110.736C169.075 109.792 168.628 108.665 168.628 107.381C168.628 106.123 168.97 105.127 169.68 104.341C170.39 103.554 171.364 102.978 172.6 102.611C173.862 102.244 175.335 102.06 177.044 102.06C178.754 102.06 180.648 102.244 182.673 102.585V106.673C182.436 107.25 182.094 107.879 181.621 108.508C181.147 109.163 180.569 109.74 179.859 110.29C179.148 110.841 178.333 111.286 177.386 111.627C176.44 111.968 175.44 112.151 174.336 112.151C172.284 112.177 170.811 111.706 169.943 110.736ZM167.156 92.0222C168.418 91.5242 169.838 91.0262 171.443 90.5282C173.047 90.0302 174.73 89.7943 176.492 89.7943C177.781 89.7943 178.885 89.9516 179.753 90.2399C180.648 90.5282 181.331 91.0262 181.805 91.7338C182.304 92.4415 182.62 93.3851 182.752 94.5645C182.883 95.7439 182.857 97.2379 182.673 99.0201C179.78 98.6008 177.15 98.4435 174.835 98.5484C172.494 98.6532 170.522 99.0726 168.865 99.7802C167.208 100.488 165.946 101.484 165.078 102.821C164.184 104.157 163.763 105.808 163.763 107.774C163.763 110.343 164.604 112.361 166.288 113.855C167.971 115.323 170.259 116.083 173.178 116.083C174.677 116.083 175.966 115.899 177.071 115.506C178.175 115.113 179.096 114.667 179.859 114.143C180.621 113.619 181.252 113.095 181.7 112.544C182.173 111.994 182.515 111.548 182.752 111.208H183.041L183.567 115.585H191.299V111.784H187.38C187.144 110.028 187.038 108.194 187.038 106.228C187.065 104.55 187.144 102.873 187.223 101.196C187.301 99.5181 187.328 97.9455 187.328 96.4516C187.328 95.1673 187.196 93.883 186.96 92.625C186.697 91.3669 186.223 90.2399 185.487 89.2439C184.75 88.248 183.777 87.4355 182.489 86.8326C181.226 86.2036 179.596 85.8891 177.597 85.8891C175.572 85.8891 173.494 86.0988 171.39 86.5443C169.286 86.9637 167.392 87.6713 165.709 88.6411L167.156 92.0222ZM139.225 111.496C138.12 110.919 137.226 110.133 136.542 109.137C135.859 108.115 135.359 106.935 135.07 105.546C134.754 104.157 134.596 102.637 134.596 100.96C134.596 97.1855 135.49 94.381 137.279 92.5463C139.067 90.7117 141.513 89.7943 144.616 89.7943C147.694 89.7943 150.061 90.2137 151.77 91.0262V104.865C151.218 107.407 150.271 109.268 148.93 110.5C147.562 111.732 145.695 112.335 143.354 112.335C141.697 112.361 140.33 112.073 139.225 111.496ZM156.399 87.6451C155.005 87.1471 153.427 86.7278 151.744 86.3871C150.034 86.0463 147.983 85.8891 145.563 85.8891C140.33 85.8891 136.385 87.1734 133.728 89.7157C131.072 92.258 129.731 96.0322 129.731 101.012C129.731 106.228 130.783 110.081 132.86 112.544C134.938 115.008 138.199 116.266 142.644 116.266C144.853 116.266 146.668 115.925 148.088 115.218C149.482 114.51 150.639 113.514 151.533 112.23H151.77V115.506C151.77 117.026 151.612 118.31 151.297 119.359C150.981 120.407 150.481 121.272 149.771 121.927C149.061 122.583 148.141 123.081 146.983 123.395C145.826 123.71 144.406 123.867 142.697 123.867C141.881 123.867 141.04 123.788 140.224 123.631C139.383 123.474 138.594 123.264 137.857 123.028C137.121 122.766 136.463 122.504 135.911 122.216C135.359 121.927 134.885 121.613 134.543 121.298L132.334 125.439C133.597 126.173 135.07 126.776 136.779 127.248C138.489 127.72 140.514 127.956 142.828 127.956C144.748 127.956 146.51 127.72 148.167 127.274C149.798 126.829 151.244 126.147 152.48 125.256C153.716 124.365 154.689 123.212 155.373 121.849C156.083 120.46 156.425 118.861 156.425 117.026L156.399 87.6451ZM96.8292 115.558H101.353V97.2641C101.616 96.2943 102.063 95.377 102.642 94.4859C103.22 93.6209 103.904 92.8347 104.693 92.1794C105.482 91.5242 106.35 90.9738 107.297 90.5806C108.243 90.1613 109.243 89.9778 110.242 89.9778C113.004 89.9778 114.924 90.7903 115.976 92.4153C117.028 94.0403 117.554 96.4778 117.554 99.7016V115.558H122.182V98.7842C122.182 96.1633 121.946 94.0141 121.472 92.3367C120.999 90.633 120.315 89.2963 119.395 88.3004C118.474 87.3044 117.317 86.623 115.949 86.2298C114.555 85.8367 112.977 85.6532 111.163 85.6532C109.979 85.6532 108.875 85.8105 107.823 86.125C106.771 86.4395 105.798 86.8588 104.956 87.383C104.088 87.9072 103.352 88.4838 102.694 89.1391C102.037 89.7943 101.537 90.4234 101.142 91.1048H100.853L100.327 86.3609H92.4634V90.1613H96.3821C96.461 90.5806 96.5399 91.1048 96.5925 91.6814C96.6451 92.258 96.6977 92.8609 96.7503 93.4637C96.7766 94.0665 96.8292 94.6431 96.8292 95.2197C96.8555 95.7963 96.8555 96.2419 96.8555 96.5826L96.8292 115.558ZM77.9984 90.2661H81.7593V105.389C80.9966 107.381 79.8394 109.032 78.3666 110.343C76.8675 111.679 75.1317 112.335 73.1065 112.335C71.7126 112.335 70.608 112.099 69.7664 111.653C68.9248 111.208 68.2936 110.552 67.8728 109.661C67.452 108.796 67.1627 107.722 67.0312 106.437C66.8997 105.179 66.8208 103.738 66.8208 102.139V86.3084H58.2733V90.2137H62.192V103.056C62.192 105.599 62.3761 107.696 62.7706 109.399C63.1651 111.103 63.77 112.439 64.5853 113.462C65.4006 114.484 66.4526 115.192 67.715 115.585C68.9774 116.004 70.5028 116.187 72.2913 116.187C74.6583 116.187 76.6834 115.663 78.3666 114.615C80.0498 113.567 81.3911 112.204 82.3905 110.526H82.6272L82.8113 115.48H90.675V111.679H86.7563C86.5196 109.923 86.4144 108.089 86.4144 106.175V86.256H78.0247L77.9984 90.2661ZM22.6893 78.5766H27.3181V115.558H31.8418V96.9758C32.0785 95.875 32.4993 94.879 33.1042 93.9617C33.7091 93.0443 34.4192 92.258 35.2608 91.629C36.1024 90.9738 37.0229 90.4758 38.0223 90.1088C39.048 89.7419 40.0737 89.5584 41.1257 89.5584C42.6511 89.5584 43.8872 89.7681 44.8603 90.2137C45.8334 90.633 46.5961 91.2621 47.1747 92.1008C47.727 92.9395 48.1215 93.9879 48.3056 95.2197C48.4897 96.4778 48.5949 97.9193 48.5949 99.5967V115.532H53.2237V98.7056C53.2237 96.0847 53.0133 93.9355 52.5662 92.258C52.1454 90.5544 51.4879 89.2177 50.5937 88.248C49.7258 87.2782 48.5686 86.5967 47.201 86.2036C45.8071 85.8105 44.1765 85.627 42.3092 85.627C39.9159 85.627 37.9434 85.9939 36.3391 86.754C34.7348 87.5141 33.3409 88.5625 32.1311 89.9254H31.8418V74.6189H22.6893V78.5766Z" fill="white"/>
<path d="M149.297 19.9456C150.77 21.3609 151.586 23.3529 151.77 25.9214H133.596C133.754 24.4012 134.122 23.117 134.675 22.0948C135.227 21.0726 135.963 20.2339 136.831 19.5787C137.699 18.9234 138.725 18.4779 139.882 18.2158C141.039 17.9537 142.249 17.7964 143.538 17.7964C145.931 17.8226 147.851 18.5303 149.297 19.9456ZM154.084 36.8508C153.69 37.1916 153.137 37.5847 152.427 38.0303C151.717 38.4496 150.875 38.8428 149.955 39.2097C149.008 39.5504 148.035 39.865 147.009 40.1271C145.984 40.3892 144.932 40.494 143.88 40.494C140.724 40.494 138.199 39.6291 136.305 37.8992C134.412 36.1694 133.465 33.5484 133.465 30.0363H156.083C156.267 26.7339 156.057 24.0343 155.373 21.9375C154.715 19.867 153.768 18.2158 152.532 17.0363C151.296 15.8569 149.876 15.0444 148.272 14.625C146.667 14.2057 145.037 13.9698 143.406 13.9698C141.144 13.9698 139.093 14.3105 137.252 14.992C135.411 15.6734 133.859 16.6694 132.571 17.9537C131.282 19.2379 130.283 20.8367 129.599 22.75C128.915 24.6633 128.573 26.8387 128.573 29.3025C128.573 31.6351 128.889 33.7319 129.52 35.619C130.151 37.4799 131.072 39.1049 132.281 40.4416C133.491 41.7783 134.99 42.8267 136.805 43.5343C138.593 44.242 140.671 44.6089 143.012 44.6089C144.274 44.6089 145.51 44.5041 146.746 44.2944C147.982 44.0847 149.166 43.7702 150.297 43.3771C151.428 42.9839 152.48 42.5121 153.427 41.9879C154.373 41.4375 155.215 40.8609 155.925 40.2319L154.084 36.8508ZM103.404 39.7863C102.273 39.2097 101.379 38.3972 100.695 37.4012C100.011 36.3791 99.5378 35.1996 99.2222 33.8105C98.9329 32.4214 98.7751 30.9275 98.7751 29.3549C98.7751 25.4496 99.6693 22.619 101.458 20.7843C103.246 18.9758 105.692 18.0585 108.822 18.0585C110.584 18.0585 111.978 18.1896 113.056 18.4779C114.134 18.74 115.081 19.1855 115.949 19.7621V33.2863C115.449 35.75 114.502 37.5847 113.135 38.8166C111.767 40.0484 109.9 40.6512 107.533 40.6512C105.902 40.6512 104.535 40.3629 103.404 39.7863ZM111.031 6.89318H115.949V15.1754C115.37 15.0182 114.818 14.8871 114.345 14.7299C113.845 14.5988 113.345 14.494 112.793 14.4154C112.241 14.3367 111.662 14.2843 111.005 14.2319C110.373 14.2057 109.637 14.1795 108.822 14.1795C106.56 14.1795 104.508 14.5202 102.694 15.1754C100.853 15.8307 99.3011 16.8004 97.9861 18.0585C96.671 19.3166 95.6716 20.8892 94.9878 22.8025C94.2777 24.6896 93.9358 26.865 93.9358 29.3287C93.9358 34.5444 94.9878 38.3972 97.0655 40.8609C99.1433 43.3246 102.404 44.5827 106.797 44.5827C109.006 44.5827 110.978 44.0847 112.661 43.0887C114.345 42.0928 115.633 40.8609 116.501 39.367H116.738L117.317 43.875H125.154V40.0746H121.235C121.156 39.6553 121.078 39.1573 120.999 38.5807C120.92 38.0041 120.841 37.4537 120.788 36.8508C120.736 36.2742 120.683 35.7238 120.63 35.1734C120.604 34.6492 120.578 34.2037 120.578 33.8629V2.96173H111.031V6.89318ZM66.5838 20.7319C68.1355 18.8186 70.4762 17.875 73.6059 17.875C75.3154 17.875 76.7619 18.2158 77.9717 18.871C79.1552 19.5262 80.1283 20.4174 80.891 21.492C81.6537 22.5928 82.206 23.7984 82.5216 25.1351C82.8635 26.4718 83.0213 27.8609 83.0213 29.25C83.0213 32.998 82.2323 35.8287 80.6543 37.742C79.0763 39.6815 76.7356 40.625 73.6059 40.625C71.8964 40.625 70.4499 40.2843 69.2401 39.6291C68.0566 38.9738 67.0835 38.0827 66.3471 37.0081C65.6107 35.9073 65.0584 34.7016 64.7428 33.3387C64.4009 31.9758 64.2431 30.6129 64.2431 29.25C64.2431 25.4758 65.0321 22.6452 66.5838 20.7319ZM60.2455 35.2783C60.8241 37.1392 61.692 38.7642 62.8492 40.1271C64.0327 41.49 65.5055 42.5646 67.2939 43.3771C69.0823 44.1633 71.2126 44.5827 73.6322 44.5827C75.894 44.5827 77.9191 44.2158 79.7075 43.5081C81.4959 42.8004 82.9687 41.7783 84.2048 40.4416C85.4146 39.1049 86.3351 37.5061 86.9663 35.619C87.5975 33.7319 87.9131 31.6089 87.9131 29.2762C87.9131 27.1271 87.6238 25.1351 87.0715 23.248C86.4929 21.3871 85.625 19.7621 84.4678 18.3992C83.2843 17.0363 81.8115 15.9617 80.0494 15.1492C78.261 14.3629 76.157 13.9436 73.6848 13.9436C69.1086 13.9436 65.5844 15.3065 63.1385 18.0585C60.6663 20.8105 59.4565 24.5323 59.4565 29.25C59.3776 31.3992 59.6669 33.4174 60.2455 35.2783ZM48.2 24.7158H52.4081V16.5908L52.4607 16.4073C51.1983 15.7783 49.6728 15.2279 47.8581 14.7037C46.0434 14.2057 43.6764 13.9436 40.7834 13.9436C38.5216 13.9436 36.4702 14.2843 34.6292 14.9658C32.7882 15.6472 31.2365 16.6432 29.9478 17.9275C28.6591 19.2117 27.6597 20.8105 26.9759 22.7238C26.2921 24.6371 25.9502 26.8125 25.9502 29.2762C25.9502 31.5827 26.2921 33.6795 26.9496 35.5666C27.6071 37.4537 28.5802 39.0787 29.8689 40.4154C31.1576 41.7521 32.7619 42.8004 34.7081 43.5081C36.6543 44.2158 38.8898 44.5827 41.4146 44.5827C42.94 44.5827 44.3602 44.4516 45.6752 44.1633C46.9902 43.9012 48.1737 43.5343 49.252 43.0887C50.3304 42.6432 51.2771 42.1714 52.0925 41.6472C52.9078 41.1492 53.5916 40.6512 54.1439 40.1795L52.0925 36.7984C50.9089 37.8206 49.4624 38.6593 47.7266 39.2883C45.9908 39.9174 44.2024 40.2319 42.3614 40.2319C40.6519 40.2319 39.0739 39.9698 37.6537 39.4718C36.2335 38.9738 34.9974 38.24 33.998 37.2964C32.9723 36.3529 32.2096 35.2258 31.6573 33.8629C31.105 32.5262 30.842 30.9799 30.842 29.2762C30.842 25.371 31.7888 22.5142 33.6561 20.7319C35.5234 18.9234 38.3901 18.0323 42.2036 18.0323C43.2293 18.0323 44.255 18.1371 45.2807 18.3468C46.3064 18.5565 47.2795 18.8186 48.1737 19.1331L48.2 24.7158Z" fill="white"/>
<path d="M294.079 0V4.08871H309.517V125.911H294.079V130H314.146V0H294.079Z" fill="white"/>
<path d="M285.533 43.875V39.9697H274.276V22.7762C274.513 22.4355 274.881 21.9899 275.381 21.4919C275.88 20.9939 276.512 20.4697 277.222 19.9718C277.932 19.4738 278.8 19.0282 279.773 18.6875C280.746 18.3468 281.851 18.1633 283.06 18.1633C284.349 18.1633 285.243 18.7399 285.717 19.8931C286.216 21.0464 286.453 22.8548 286.453 25.3447L290.556 25.2923C290.556 23.5363 290.477 21.9637 290.319 20.6008C290.161 19.2117 289.872 18.0322 289.399 17.0625C288.952 16.0927 288.32 15.3589 287.531 14.8347C286.742 14.3367 285.664 14.0746 284.349 14.0746C282.087 14.0746 280.141 14.4939 278.484 15.3589C276.854 16.2238 275.354 17.2459 274.039 18.4516H273.75L272.803 14.6512H261.836V18.5564H269.753V39.9435H261.836V43.8488L285.533 43.875ZM235.825 20.7318C237.377 18.8185 239.718 17.875 242.848 17.875C244.557 17.875 246.004 18.2157 247.213 18.8709C248.397 19.5262 249.37 20.4173 250.133 21.4919C250.895 22.5927 251.448 23.7984 251.763 25.1351C252.105 26.4718 252.263 27.8609 252.263 29.25C252.263 32.998 251.474 35.8286 249.896 37.7419C248.318 39.6814 245.977 40.625 242.848 40.625C241.138 40.625 239.692 40.2843 238.482 39.629C237.298 38.9738 236.325 38.0826 235.589 37.008C234.852 35.9072 234.3 34.7016 233.984 33.3387C233.643 31.9758 233.485 30.6129 233.485 29.25C233.485 25.4758 234.247 22.6451 235.825 20.7318ZM229.461 35.2782C230.039 37.1391 230.907 38.7641 232.065 40.127C233.248 41.4899 234.721 42.5645 236.509 43.377C238.298 44.1633 240.428 44.5826 242.848 44.5826C245.109 44.5826 247.134 44.2157 248.923 43.508C250.711 42.8004 252.184 41.7782 253.394 40.4415C254.604 39.131 255.524 37.506 256.155 35.6189C256.787 33.7318 257.102 31.6088 257.102 29.2762C257.102 27.127 256.813 25.1351 256.261 23.248C255.682 21.3871 254.814 19.7621 253.657 18.3992C252.473 17.0363 251.001 15.9617 249.238 15.1492C247.45 14.3629 245.346 13.9435 242.874 13.9435C238.298 13.9435 234.773 15.3064 232.328 18.0584C229.855 20.8105 228.646 24.5322 228.646 29.25C228.619 31.3992 228.882 33.4173 229.461 35.2782ZM222.702 43.875V39.9697H210.577V18.5826H222.702V14.6512H210.577C210.577 11.7681 211.051 9.69756 211.971 8.4395C212.892 7.18143 214.654 6.5524 217.231 6.5524C218.02 6.5524 218.862 6.63103 219.809 6.76208C220.729 6.89313 221.702 7.18143 222.728 7.60079L223.78 3.80038C222.597 3.32861 221.518 3.01409 220.493 2.85684C219.467 2.69958 218.336 2.62095 217.047 2.62095C213.497 2.62095 210.762 3.43345 208.842 5.08466C206.922 6.70966 205.975 9.35684 205.975 13.0262V14.6512H199.005V18.5564H205.975V39.9435H199.005V43.8488L222.702 43.875Z" fill="white"/>
<path d="M283.06 90.4757H268.779V104.708H283.06V90.4757Z" fill="white"/>
</g>
</svg>
