<svg width="251" height="70" viewBox="0 0 251 70" fill="none" xmlns="http://www.w3.org/2000/svg">
<path d="M229.154 51.5471L238.236 54.0071C238.867 49.6931 239.358 47.0192 239.884 44.7731L230.872 42.313C229.961 46.2705 229.4 49.1583 229.154 51.5471ZM233.187 34.2198L241.217 36.4659C243.145 27.1606 246.056 16.9995 251 2.77406L241.217 0.100098C238.517 9.83331 236.097 20.2083 233.187 34.2198ZM197.279 54.3637L199.979 51.6184C207.869 52.4028 211.2 52.7593 218.915 54.5063L220.773 46.4844C215.443 46.2705 211.13 46.1992 207.203 46.1992H205.274L231.398 19.4239L222.316 16.75L219.756 19.4239C212.603 18.6396 208.676 18.3543 201.382 16.75L199.524 24.7718C203.135 24.9144 207.694 24.9144 210.184 24.9144H214.356L188.162 51.6184L197.314 54.3637H197.279ZM164.738 43.9174L162.599 51.9393C165.159 53.508 172.243 54.3993 174.943 54.5419C181.605 53.0445 188.057 48.4096 187.847 42.2061C187.706 39.6034 186.655 37.9634 183.253 33.8276C179.221 28.7649 175.819 22.8822 175.434 20.7787C179.115 21.1352 188.969 24.237 192.3 26.1979L194.439 18.1761C191.879 16.6073 185.497 15.5734 182.797 15.5021C177.818 16.75 169.893 20.3509 170.104 27.838C170.174 29.9415 171.646 32.7581 174.943 36.9294C178.695 41.6356 181.745 47.0905 182.096 49.2653C178.414 48.9801 168.105 45.8783 164.774 43.9174M165.229 18.6752L156.779 16.3578C155.201 20.4578 153.868 24.5223 152.676 28.4797L138.544 42.7052C141.034 34.3981 142.787 26.4119 143.945 18.6752L135.494 16.3578C134.933 23.0605 129.673 43.2043 126.271 51.5827L134.722 53.9002L150.046 38.5338C148.994 42.9548 148.258 47.2687 147.556 51.5827L156.007 53.9002C156.568 47.1974 161.828 27.0536 165.229 18.6396M96.7812 69.6231C106.494 67.3056 114.805 59.3194 117.295 51.2975C118.767 46.5913 122.554 32.7581 128.375 18.1761L119.995 15.7873C118.873 18.6039 117.645 22.9179 116.243 27.9093L101.48 42.6339C103.97 34.3981 105.723 26.4119 106.88 18.6752L98.4293 16.3578C97.8683 23.0605 92.6084 43.2043 89.207 51.6184L97.6579 53.9358L113.402 38.1416C110.632 47.8748 107.511 58.0359 104.18 64.3821C99.8319 63.8116 89.698 60.6385 86.7875 58.6063L84.6485 66.6282C86.8576 68.0543 93.8708 69.5874 96.7812 69.6587M52.1777 50.2636L60.4181 52.5097V52.3671L77.8458 37.0007C76.5834 46.3774 73.6028 55.8254 69.3248 64.1682C64.4507 63.5264 54.492 60.2107 51.8621 58.3924L49.7231 66.4143C51.5816 67.5908 58.4545 69.3735 61.8558 69.5161C74.9704 67.27 85.8407 50.7627 86.7524 31.7954L78.5821 29.478L61.1194 44.9157C62.3117 36.0381 64.8013 27.1962 68.2027 20.6005C72.621 21.1709 82.1238 24.1301 85.1044 25.9484L87.2434 17.9265C85.3148 16.7856 79.2133 15.3951 75.6717 15.2525C63.6091 17.2847 53.8959 31.8311 52.2478 50.2992M45.2698 11.2238L54.0712 13.8264C55.1933 10.2255 56.7012 6.26803 58.2441 3.23755L49.3724 0.7775C47.8296 4.30713 46.3217 8.19328 45.2698 11.2238ZM52.4232 18.7109L43.9723 16.3934C39.7645 27.4458 36.7137 39.033 34.7501 51.654L43.2009 53.9715C43.7619 47.2688 49.0218 27.1249 52.4232 18.7109ZM9.01187 54.1141L13.3951 37.5355C18.7251 37.3216 25.3174 37.3216 29.4902 37.4642L31.7695 29.0858C27.1759 28.8006 21.8459 28.8719 15.6042 29.1571L20.5835 10.0472C27.1058 10.1185 34.0838 10.4038 39.3086 10.9029L41.5177 2.23927C30.5773 1.24099 20.3731 1.31229 6.62741 2.38188L4.34814 10.7603C5.75077 10.4751 8.10017 10.3324 10.8704 10.1898L0 51.6184L9.01187 54.0784V54.1141Z" fill="white"/>
</svg>
